<svg width="89" height="34" viewBox="0 0 89 34" fill="none" xmlns="http://www.w3.org/2000/svg">
<path d="M27.0206 6.63637V27H22.7152V6.63637H27.0206Z" fill="#047857"/>
<path d="M5.27983 27H0.666199L7.69603 6.63637H13.2443L20.2642 27H15.6506L10.5497 11.2898H10.3906L5.27983 27ZM4.99148 18.9957H15.8892V22.3565H4.99148V18.9957Z" fill="#047857"/>
<path d="M53.5355 17.2727V26H52.5298V17.2727H53.5355Z" fill="white"/>
<path d="M48.0288 26.1364C47.4379 26.1364 46.9194 25.9957 46.4734 25.7145C46.0302 25.4332 45.6836 25.0398 45.4336 24.5341C45.1864 24.0284 45.0629 23.4375 45.0629 22.7614C45.0629 22.0796 45.1864 21.4844 45.4336 20.9759C45.6836 20.4673 46.0302 20.0724 46.4734 19.7912C46.9194 19.5099 47.4379 19.3693 48.0288 19.3693C48.6197 19.3693 49.1367 19.5099 49.5799 19.7912C50.0259 20.0724 50.3725 20.4673 50.6197 20.9759C50.8697 21.4844 50.9947 22.0796 50.9947 22.7614C50.9947 23.4375 50.8697 24.0284 50.6197 24.5341C50.3725 25.0398 50.0259 25.4332 49.5799 25.7145C49.1367 25.9957 48.6197 26.1364 48.0288 26.1364ZM48.0288 25.233C48.4776 25.233 48.847 25.1179 49.1367 24.8878C49.4265 24.6577 49.641 24.3551 49.7802 23.9801C49.9194 23.6051 49.989 23.1989 49.989 22.7614C49.989 22.3239 49.9194 21.9162 49.7802 21.5384C49.641 21.1605 49.4265 20.8551 49.1367 20.6222C48.847 20.3892 48.4776 20.2727 48.0288 20.2727C47.5799 20.2727 47.2106 20.3892 46.9208 20.6222C46.631 20.8551 46.4166 21.1605 46.2774 21.5384C46.1382 21.9162 46.0685 22.3239 46.0685 22.7614C46.0685 23.1989 46.1382 23.6051 46.2774 23.9801C46.4166 24.3551 46.631 24.6577 46.9208 24.8878C47.2106 25.1179 47.5799 25.233 48.0288 25.233Z" fill="white"/>
<path d="M40.8686 26.1364C40.2777 26.1364 39.7592 25.9957 39.3132 25.7145C38.87 25.4332 38.5234 25.0398 38.2734 24.5341C38.0263 24.0284 37.9027 23.4375 37.9027 22.7614C37.9027 22.0796 38.0263 21.4844 38.2734 20.9759C38.5234 20.4673 38.87 20.0724 39.3132 19.7912C39.7592 19.5099 40.2777 19.3693 40.8686 19.3693C41.4595 19.3693 41.9766 19.5099 42.4198 19.7912C42.8658 20.0724 43.2124 20.4673 43.4595 20.9759C43.7095 21.4844 43.8345 22.0796 43.8345 22.7614C43.8345 23.4375 43.7095 24.0284 43.4595 24.5341C43.2124 25.0398 42.8658 25.4332 42.4198 25.7145C41.9766 25.9957 41.4595 26.1364 40.8686 26.1364ZM40.8686 25.233C41.3175 25.233 41.6868 25.1179 41.9766 24.8878C42.2663 24.6577 42.4808 24.3551 42.62 23.9801C42.7592 23.6051 42.8288 23.1989 42.8288 22.7614C42.8288 22.3239 42.7592 21.9162 42.62 21.5384C42.4808 21.1605 42.2663 20.8551 41.9766 20.6222C41.6868 20.3892 41.3175 20.2727 40.8686 20.2727C40.4198 20.2727 40.0504 20.3892 39.7607 20.6222C39.4709 20.8551 39.2564 21.1605 39.1172 21.5384C38.978 21.9162 38.9084 22.3239 38.9084 22.7614C38.9084 23.1989 38.978 23.6051 39.1172 23.9801C39.2564 24.3551 39.4709 24.6577 39.7607 24.8878C40.0504 25.1179 40.4198 25.233 40.8686 25.233Z" fill="white"/>
<path d="M36.767 19.4545V20.3068H33.375V19.4545H36.767ZM34.3636 17.8864H35.3693V24.125C35.3693 24.4091 35.4105 24.6222 35.4929 24.7642C35.5781 24.9034 35.6861 24.9972 35.8168 25.0455C35.9503 25.0909 36.0909 25.1136 36.2386 25.1136C36.3494 25.1136 36.4403 25.108 36.5114 25.0966C36.5824 25.0824 36.6392 25.071 36.6818 25.0625L36.8864 25.9659C36.8182 25.9915 36.723 26.017 36.6009 26.0426C36.4787 26.071 36.3239 26.0852 36.1364 26.0852C35.8523 26.0852 35.5739 26.0242 35.3011 25.902C35.0313 25.7798 34.8068 25.5938 34.6278 25.3438C34.4517 25.0938 34.3636 24.7784 34.3636 24.3977V17.8864Z" fill="white"/>
<path d="M84.6563 16.5909C84.1705 16.5909 83.7529 16.5284 83.4034 16.4034C83.054 16.2813 82.7628 16.1193 82.5298 15.9176C82.2997 15.7188 82.1165 15.5057 81.9801 15.2784L82.7813 14.7159C82.8722 14.8352 82.9872 14.9716 83.1264 15.125C83.2656 15.2813 83.456 15.4162 83.6975 15.5298C83.9418 15.6463 84.2614 15.7046 84.6563 15.7046C85.1847 15.7046 85.6208 15.5767 85.9645 15.321C86.3083 15.0653 86.4801 14.6648 86.4801 14.1193V12.7898H86.3949C86.321 12.9091 86.2159 13.0568 86.0796 13.233C85.946 13.4063 85.7529 13.5611 85.5 13.6974C85.25 13.831 84.9119 13.8977 84.4858 13.8977C83.9574 13.8977 83.483 13.7727 83.0625 13.5227C82.6449 13.2727 82.3139 12.9091 82.0696 12.4318C81.8281 11.9546 81.7074 11.375 81.7074 10.6932C81.7074 10.0227 81.8253 9.43893 82.0611 8.94177C82.2969 8.44177 82.625 8.0554 83.0455 7.78268C83.4659 7.50711 83.9517 7.36932 84.5029 7.36932C84.929 7.36932 85.2671 7.44035 85.5171 7.58239C85.7699 7.7216 85.9631 7.88069 86.0966 8.05966C86.233 8.2358 86.3381 8.38069 86.4119 8.49432H86.5142V7.45455H87.4858V14.1875C87.4858 14.75 87.358 15.2074 87.1023 15.5597C86.8494 15.9148 86.5085 16.1747 86.0796 16.3395C85.6534 16.5071 85.179 16.5909 84.6563 16.5909ZM84.6222 12.9943C85.0256 12.9943 85.3665 12.902 85.6449 12.7173C85.9233 12.5327 86.135 12.2671 86.2798 11.9205C86.4247 11.5739 86.4972 11.1591 86.4972 10.6761C86.4972 10.2046 86.4261 9.78836 86.2841 9.42756C86.1421 9.06677 85.9318 8.7841 85.6534 8.57955C85.375 8.37501 85.0313 8.27273 84.6222 8.27273C84.196 8.27273 83.8409 8.38069 83.5568 8.5966C83.2756 8.81251 83.0639 9.10228 82.9219 9.46591C82.7827 9.82955 82.7131 10.233 82.7131 10.6761C82.7131 11.1307 82.7841 11.5327 82.9261 11.8821C83.071 12.2287 83.2841 12.5014 83.5654 12.7003C83.8494 12.8963 84.2017 12.9943 84.6222 12.9943Z" fill="white"/>
<path d="M76.0004 10.0625V14H74.9947V7.45455H75.9663V8.47728H76.0515C76.2049 8.14489 76.4379 7.87785 76.7504 7.67614C77.0629 7.4716 77.4663 7.36932 77.9606 7.36932C78.4038 7.36932 78.7916 7.46023 79.124 7.64205C79.4563 7.82103 79.7149 8.09376 79.8995 8.46023C80.0842 8.82387 80.1765 9.2841 80.1765 9.84091V14H79.1708V9.9091C79.1708 9.39489 79.0373 8.99432 78.7703 8.70739C78.5032 8.41762 78.1367 8.27273 77.6708 8.27273C77.3498 8.27273 77.0629 8.34233 76.81 8.48154C76.56 8.62074 76.3626 8.82387 76.2177 9.09091C76.0728 9.35796 76.0004 9.68182 76.0004 10.0625Z" fill="white"/>
<path d="M72.147 14V7.45455H73.1527V14H72.147ZM72.6584 6.36364C72.4624 6.36364 72.2933 6.29688 72.1513 6.16335C72.0121 6.02983 71.9425 5.86932 71.9425 5.68182C71.9425 5.49432 72.0121 5.33381 72.1513 5.20028C72.2933 5.06676 72.4624 5 72.6584 5C72.8544 5 73.022 5.06676 73.1612 5.20028C73.3033 5.33381 73.3743 5.49432 73.3743 5.68182C73.3743 5.86932 73.3033 6.02983 73.1612 6.16335C73.022 6.29688 72.8544 6.36364 72.6584 6.36364Z" fill="white"/>
<path d="M66.1332 10.0625V14H65.1275V7.45455H66.0991V8.47728H66.1843C66.3377 8.14489 66.5707 7.87785 66.8832 7.67614C67.1957 7.4716 67.5991 7.36932 68.0934 7.36932C68.5366 7.36932 68.9244 7.46023 69.2568 7.64205C69.5891 7.82103 69.8477 8.09376 70.0323 8.46023C70.217 8.82387 70.3093 9.2841 70.3093 9.84091V14H69.3036V9.9091C69.3036 9.39489 69.1701 8.99432 68.9031 8.70739C68.636 8.41762 68.2695 8.27273 67.8036 8.27273C67.4826 8.27273 67.1957 8.34233 66.9428 8.48154C66.6928 8.62074 66.4954 8.82387 66.3505 9.09091C66.2056 9.35796 66.1332 9.68182 66.1332 10.0625Z" fill="white"/>
<path d="M60.8874 14.1364C60.2568 14.1364 59.7127 13.9972 59.2553 13.7188C58.8008 13.4375 58.4499 13.0455 58.2028 12.5426C57.9585 12.0369 57.8363 11.4489 57.8363 10.7784C57.8363 10.108 57.9585 9.51705 58.2028 9.00569C58.4499 8.49148 58.7937 8.09091 59.234 7.80398C59.6772 7.51421 60.1943 7.36932 60.7852 7.36932C61.1261 7.36932 61.4627 7.42614 61.7951 7.53978C62.1275 7.65341 62.4301 7.83807 62.7028 8.09376C62.9755 8.3466 63.1928 8.68182 63.3548 9.09944C63.5167 9.51705 63.5977 10.0313 63.5977 10.6421V11.0682H58.5522V10.1989H62.5749C62.5749 9.82955 62.5011 9.50001 62.3533 9.21023C62.2085 8.92046 62.0011 8.69177 61.7312 8.52415C61.4641 8.35654 61.1488 8.27273 60.7852 8.27273C60.3846 8.27273 60.038 8.37216 59.7454 8.57103C59.4556 8.76705 59.2326 9.02273 59.0764 9.33807C58.9201 9.65341 58.842 9.99148 58.842 10.3523V10.9318C58.842 11.4261 58.9272 11.8452 59.0977 12.1889C59.271 12.5298 59.511 12.7898 59.8178 12.9688C60.1247 13.1449 60.4812 13.233 60.8874 13.233C61.1516 13.233 61.3903 13.196 61.6033 13.1222C61.8193 13.0455 62.0053 12.9318 62.1616 12.7813C62.3178 12.6278 62.4386 12.4375 62.5238 12.2102L63.4954 12.483C63.3931 12.8125 63.2212 13.1023 62.9798 13.3523C62.7383 13.5994 62.44 13.7926 62.0849 13.9318C61.7298 14.0682 61.3306 14.1364 60.8874 14.1364Z" fill="white"/>
<path d="M53.9031 14.1364C53.2724 14.1364 52.7284 13.9972 52.271 13.7188C51.8164 13.4375 51.4656 13.0455 51.2184 12.5426C50.9741 12.0369 50.8519 11.4489 50.8519 10.7784C50.8519 10.108 50.9741 9.51705 51.2184 9.00569C51.4656 8.49148 51.8093 8.09091 52.2497 7.80398C52.6928 7.51421 53.2099 7.36932 53.8008 7.36932C54.1417 7.36932 54.4783 7.42614 54.8107 7.53978C55.1431 7.65341 55.4457 7.83807 55.7184 8.09376C55.9911 8.3466 56.2085 8.68182 56.3704 9.09944C56.5323 9.51705 56.6133 10.0313 56.6133 10.6421V11.0682H51.5678V10.1989H55.5906C55.5906 9.82955 55.5167 9.50001 55.369 9.21023C55.2241 8.92046 55.0167 8.69177 54.7468 8.52415C54.4798 8.35654 54.1644 8.27273 53.8008 8.27273C53.4002 8.27273 53.0536 8.37216 52.761 8.57103C52.4712 8.76705 52.2482 9.02273 52.092 9.33807C51.9357 9.65341 51.8576 9.99148 51.8576 10.3523V10.9318C51.8576 11.4261 51.9428 11.8452 52.1133 12.1889C52.2866 12.5298 52.5266 12.7898 52.8335 12.9688C53.1403 13.1449 53.4968 13.233 53.9031 13.233C54.1673 13.233 54.4059 13.196 54.619 13.1222C54.8349 13.0455 55.021 12.9318 55.1772 12.7813C55.3335 12.6278 55.4542 12.4375 55.5394 12.2102L56.511 12.483C56.4087 12.8125 56.2369 13.1023 55.9954 13.3523C55.7539 13.5994 55.4556 13.7926 55.1005 13.9318C54.7454 14.0682 54.3462 14.1364 53.9031 14.1364Z" fill="white"/>
<path d="M46.8931 14V7.45454H47.8647V8.44317H47.9329C48.0522 8.11931 48.2681 7.85653 48.5806 7.65482C48.8931 7.45312 49.2454 7.35226 49.6374 7.35226C49.7113 7.35226 49.8036 7.35368 49.9144 7.35653C50.0252 7.35937 50.109 7.36363 50.1659 7.36931V8.39204C50.1318 8.38351 50.0536 8.37073 49.9315 8.35369C49.8122 8.3338 49.6857 8.32386 49.5522 8.32386C49.234 8.32386 48.9499 8.39062 48.6999 8.52414C48.4528 8.65482 48.2568 8.83664 48.1119 9.06959C47.9698 9.29971 47.8988 9.56249 47.8988 9.85795V14H46.8931Z" fill="white"/>
<path d="M42.8491 14.1364C42.2355 14.1364 41.707 13.9915 41.2639 13.7017C40.8207 13.4119 40.4798 13.0128 40.2411 12.5043C40.0025 11.9957 39.8832 11.4148 39.8832 10.7614C39.8832 10.0966 40.0053 9.50995 40.2497 9.00143C40.4968 8.49006 40.8406 8.09091 41.2809 7.80398C41.7241 7.51421 42.2411 7.36932 42.832 7.36932C43.2923 7.36932 43.707 7.45455 44.0764 7.62501C44.4457 7.79546 44.7482 8.0341 44.984 8.34091C45.2198 8.64773 45.3661 9.00569 45.423 9.41478H44.4173C44.3406 9.11648 44.1701 8.85228 43.9059 8.62216C43.6445 8.38921 43.2923 8.27273 42.8491 8.27273C42.457 8.27273 42.1133 8.37501 41.8178 8.57955C41.5252 8.78126 41.2965 9.06677 41.1318 9.43608C40.9698 9.80256 40.8889 10.233 40.8889 10.7273C40.8889 11.233 40.9684 11.6733 41.1275 12.0483C41.2894 12.4233 41.5167 12.7145 41.8093 12.9219C42.1048 13.1293 42.4514 13.233 42.8491 13.233C43.1105 13.233 43.3477 13.1875 43.5607 13.0966C43.7738 13.0057 43.9542 12.875 44.1019 12.7046C44.2497 12.5341 44.3548 12.3296 44.4173 12.0909H45.423C45.3661 12.4773 45.2255 12.8253 45.0011 13.1349C44.7795 13.4418 44.4855 13.6861 44.119 13.8679C43.7553 14.0469 43.332 14.1364 42.8491 14.1364Z" fill="white"/>
<path d="M38.5568 8.92046L37.6534 9.17614C37.5966 9.02557 37.5128 8.87927 37.402 8.73722C37.294 8.59233 37.1463 8.47302 36.9588 8.37927C36.7713 8.28552 36.5312 8.23864 36.2386 8.23864C35.8381 8.23864 35.5043 8.33097 35.2372 8.51563C34.973 8.69745 34.8409 8.92898 34.8409 9.21023C34.8409 9.46023 34.9318 9.65768 35.1136 9.80256C35.2954 9.94745 35.5795 10.0682 35.9659 10.1648L36.9375 10.4034C37.5227 10.5455 37.9588 10.7628 38.2457 11.0554C38.5327 11.3452 38.6761 11.7188 38.6761 12.1761C38.6761 12.5511 38.5682 12.8864 38.3523 13.1818C38.1392 13.4773 37.8409 13.7102 37.4574 13.8807C37.0739 14.0511 36.6278 14.1364 36.1193 14.1364C35.4517 14.1364 34.8991 13.9915 34.4616 13.7017C34.0241 13.4119 33.7472 12.9886 33.6307 12.4318L34.5852 12.1932C34.6761 12.5455 34.848 12.8097 35.1008 12.9858C35.3565 13.1619 35.6903 13.25 36.1023 13.25C36.571 13.25 36.9432 13.1506 37.2187 12.9517C37.4972 12.75 37.6364 12.5085 37.6364 12.2273C37.6364 12 37.5568 11.8097 37.3977 11.6563C37.2386 11.5 36.9943 11.3835 36.6648 11.3068L35.5739 11.0511C34.9744 10.9091 34.5341 10.6889 34.2528 10.3906C33.9744 10.0895 33.8352 9.71307 33.8352 9.26137C33.8352 8.89205 33.9389 8.56535 34.1463 8.28126C34.3565 7.99716 34.642 7.77415 35.0028 7.61222C35.3665 7.45029 35.7784 7.36932 36.2386 7.36932C36.8864 7.36932 37.3949 7.51137 37.7642 7.79546C38.1364 8.07955 38.4006 8.45455 38.5568 8.92046Z" fill="white"/>
</svg>
