<svg xmlns="http://www.w3.org/2000/svg" fill="none" viewBox="0 0 469 248" width="234" height="124">
  <path fill="#000" d="M171.61 76.1696H145v-35.86h-17.43v17.39l-3.9-3.82c-11.52-11.29-28.35-17.01-50.02-17.01-44.74 0-73.65 22.88-73.65 58.28C0 133.27 25.47 153.43 73.65 153.43c22.57 0 38.36-4.24 48.27-12.96l3.81-3.36v15.86c0 19.62-10.09 27.99-33.73 27.99-8.86 0-15.42-1.13-20.07-3.46-4-1.99-6.52-4.86-7.84-8.93H5.31c6.32 29.07 29.87 39.47 88.07 39.47 58.56 0 84.82-16.34 85.1-52.91-4.6-6.5-6.86-15.96-6.86-29.62V76.1696h-.01ZM90.4 123.59c-31.48 0-34.88-19.09-34.88-27.3004 0-16.81 13.04-26.85 34.88-26.85 31.89 0 35.33 18.78 35.33 26.85 0 8.2104-3.45 27.3004-35.33 27.3004Z"/>
  <path fill="#000" d="M248.47 132.84c-6.61 0-11.67-.21-14.99-2.48-.89-.61-1.66-1.37-2.29-2.31-1.45-2.17-2.22-5.31-2.22-9.89V71.59h30.97V40.38h-30.97V0H176.2v40.37h-26.61v31.21h26.61v53.92c0 7.98.73 14.33 2.3 19.42.62 2 1.4 3.77 2.3 5.4.68 1.23 1.44 2.37 2.29 3.4 6.81 8.27 19.12 10.33 39 10.33 2.3 0 4.55-.06 6.81-.1 3.87-.08 7.7-.21 11.48-.43 7.16-.41 14.19-1.04 21.17-1.94v-29.09c-4.67.19-9.13.35-13.08.35Zm-44.93 110.18-12.01-23.44h-4.07v26.95h2.79V223.2h.08l11.85 23.33h2.57l11.89-23.29h.08v23.29h2.79v-26.95h-3.96l-12.01 23.44Zm22.38 3.51h2.79v-26.95h-2.79v26.95Zm9.12 0h13.51c7.55 0 11.51-5.88 11.51-13.47 0-8.46-4.07-13.47-11.92-13.47h-13.1v26.94Zm2.79-24.38h10.19c6.23 0 9.02 3.78 9.02 10.91 0 8.27-4.19 10.91-9.02 10.91h-10.19v-21.82Zm34.33 24.38h2.79v-24.38h10.57v-2.56h-23.93v2.56h10.57v24.38Zm13.94-8.83h-2.79c.08 3.36.19 9.51 8.6 9.51 6.15 0 8.94-3.39 8.94-8.22v-19.4h-2.79v18.65c0 5.29-2.27 6.64-6 6.64-4.19 0-6-2.3-5.97-6.19v-.99h.01Zm30.08 8.83h2.79v-11.32l12.12-15.62h-3.62l-9.89 12.83-9.89-12.83h-3.62l12.12 15.62v11.32h-.01Zm18.11 0h19.89v-2.56h-17.1v-24.38h-2.79v26.94Zm23.4 0h19.89v-2.56h-17.1v-24.38h-2.79v26.94Zm41.67-10.75h-11.93l6-13.4 5.93 13.4Zm4.71 10.75h3.25l-12.23-26.95h-3.25l-12.23 26.95h3.02l3.66-8.19h14.19l3.59 8.19Zm6.66 0h2.79v-23.02h.08l18.95 23.02h3.24v-26.95H433v23.02h-.07l-18.84-23.02h-3.36v26.95Zm31.29 0h13.51c7.55 0 11.51-5.88 11.51-13.47 0-8.46-4.07-13.47-11.93-13.47h-13.1v26.94h.01Zm2.79-24.38H455c6.23 0 9.02 3.78 9.02 10.91 0 8.27-4.19 10.91-9.02 10.91h-10.19v-21.82Zm-234.04-16.8h2.01v-13.02h-11.67v2.4h9.27c-.78 4.53-3.19 8.85-10.76 8.85-6.72 0-10.19-4.07-10.19-10.87 0-6.65 3.79-10.87 10.69-10.87 4.53 0 8.35 1.95 9.38 6.23h2.83c-.67-4.67-5.16-8.63-12.21-8.63-8.39 0-13.52 5.62-13.52 13.27 0 7.89 4.67 13.27 13.23 13.27 4.96 0 7.93-1.7 10.51-5.41h.07l.36 4.78Zm6.49-12.64c0 8.92 6.54 13.27 13.73 13.27s13.73-4.35 13.73-13.27-6.54-13.27-13.73-13.27-13.73 4.35-13.73 13.27Zm2.83 0c0-7.61 5.35-10.87 10.9-10.87 5.56 0 10.9 3.26 10.9 10.87 0 7.61-5.34 10.87-10.9 10.87-5.56 0-10.9-3.26-10.9-10.87Zm38.27 9.67-9.76-22.29h-3.04l11.29 25.26h2.83l11.18-25.26h-2.83l-9.67 22.29Zm24.18 2.97h2.62v-22.86h9.91v-2.4h-22.43v2.4h9.91v22.86h-.01Zm16.11 0h20.38v-2.4h-17.76v-9.49h16.84v-2.4h-16.84v-8.57h17.48v-2.4h-20.1v25.26Zm46.78-9.63c-.89 4.81-3.86 7.86-9.87 7.86-7.68 0-10.62-5.24-10.62-10.87 0-7.36 4.35-10.87 10.62-10.87 4.57 0 8.88 1.95 9.66 6.76h2.62c-.78-6.65-6.76-9.16-12.28-9.16-9.87 0-13.44 7.5-13.44 13.27 0 8.11 5.23 13.27 13.44 13.27 7.26 0 11.93-4.6 12.49-10.26h-2.62Zm7.36 9.63h2.61v-12.17h18.26v12.17h2.61v-25.26h-2.61v10.69H355.4v-10.69h-2.61v25.26Z"/>
  <path fill="#000" d="M421.63 36.8596c-26.72 0-39.17 12.45-44.23 19.87l-2.13 3.13-1.79-3.34c-5.48-10.21-14.07-19.67-39.51-19.67-20.11 0-34.82 6.46-44.98 19.75l-.69.9h-3.43l-.46-2.29v-14.9h-19.88v35.87h-30.98V118.17c0 9.35 2.25 10.1 14.92 10.1 4.35 0 9.32-.21 14.51-.42l3.15-.13v33.22c9.63-1.75 16.42-5.65 20.12-8.3V96.9996c0-15.53 7.33-23.4 21.8-23.4 12.05 0 17.67 6.05 17.67 19.04V161.24h50.93V96.9996c0-15.53 7.33-23.4 21.8-23.4 12.05 0 17.67 6.05 17.67 19.04V161.24h52.77V77.0296c0-34.95-29.61-40.17-47.26-40.17Z"/>
</svg>